{"AssetRegistry":[{"AudioCoverPath":"cache/30.png","AudioCoverResolution":[200.0,200.0],"AudioProbeData":"ffprobe version 6.0.1 Copyright (c) 2007-2023 the FFmpeg developers\n  built with gcc 13 (GCC)\n  configuration: --prefix=/usr --bindir=/usr/bin --datadir=/usr/share/ffmpeg --docdir=/usr/share/doc/ffmpeg --incdir=/usr/include/ffmpeg --libdir=/usr/lib64 --mandir=/usr/share/man --arch=x86_64 --optflags='-O2 -flto=auto -ffat-lto-objects -fexceptions -g -grecord-gcc-switches -pipe -Wall -Wno-complain-wrong-lang -Werror=format-security -Wp,-U_FORTIFY_SOURCE,-D_FORTIFY_SOURCE=3 -Wp,-D_GLIBCXX_ASSERTIONS -specs=/usr/lib/rpm/redhat/redhat-hardened-cc1 -fstack-protector-strong -specs=/usr/lib/rpm/redhat/redhat-annobin-cc1 -m64 -mtune=generic -fasynchronous-unwind-tables -fstack-clash-protection -fcf-protection -fno-omit-frame-pointer -mno-omit-leaf-frame-pointer' --extra-ldflags='-Wl,-z,relro -Wl,--as-needed -Wl,-z,now -specs=/usr/lib/rpm/redhat/redhat-hardened-ld -specs=/usr/lib/rpm/redhat/redhat-annobin-cc1 -Wl,--build-id=sha1 ' --extra-cflags=' -I/usr/include/rav1e' --enable-libopencore-amrnb --enable-libopencore-amrwb --enable-libvo-amrwbenc --enable-version3 --enable-bzlib --enable-chromaprint --disable-crystalhd --enable-fontconfig --enable-frei0r --enable-gcrypt --enable-gnutls --enable-ladspa --enable-libaom --enable-libdav1d --enable-libass --enable-libbluray --enable-libbs2b --enable-libcdio --enable-libdrm --enable-libjack --enable-libjxl --enable-libfreetype --enable-libfribidi --enable-libgsm --enable-libilbc --enable-libmp3lame --enable-libmysofa --enable-nvenc --enable-openal --enable-opencl --enable-opengl --enable-libopenh264 --enable-libopenjpeg --enable-libopenmpt --enable-libopus --enable-libpulse --enable-libplacebo --enable-librsvg --enable-librav1e --enable-librubberband --enable-libsmbclient --enable-version3 --enable-libsnappy --enable-libsoxr --enable-libspeex --enable-libsrt --enable-libssh --enable-libsvtav1 --enable-libtesseract --enable-libtheora --enable-libtwolame --enable-libvorbis --enable-libv4l2 --enable-libvidstab --enable-libvmaf --enable-version3 --enable-vapoursynth --enable-libvpx --enable-vulkan --enable-libshaderc --enable-libwebp --enable-libx264 --enable-libx265 --enable-libxvid --enable-libxml2 --enable-libzimg --enable-libzmq --enable-libzvbi --enable-lv2 --enable-avfilter --enable-libmodplug --enable-postproc --enable-pthreads --disable-static --enable-shared --enable-gpl --disable-debug --disable-stripping --shlibdir=/usr/lib64 --enable-lto --enable-libvpl --enable-runtime-cpudetect\n  libavutil      58.  2.100 / 58.  2.100\n  libavcodec     60.  3.100 / 60.  3.100\n  libavformat    60.  3.100 / 60.  3.100\n  libavdevice    60.  1.100 / 60.  1.100\n  libavfilter     9.  3.100 /  9.  3.100\n  libswscale      7.  1.100 /  7.  1.100\n  libswresample   4. 10.100 /  4. 10.100\n  libpostproc    57.  1.100 / 57.  1.100\nInput #0, wav, from 'cache/28.wav':\n  Metadata:\n    artist          : Test\n    title           : Stereo Test\n    album           : Test Sounds\n    encoder         : Lavf60.3.100\n  Duration: 00:00:16.74, bitrate: 1024 kb/s\n  Stream #0:0: Audio: pcm_s16le ([1][0][0][0] / 0x0001), 32000 Hz, 2 channels, s16, 1024 kb/s\n","ID":3361658,"InternalName":"Stereo test","Path":"cache/28.wav","Type":"Audio"},{"AudioCoverPath":"misc/wav.png","AudioCoverResolution":[512.0,512.0],"AudioProbeData":"ffprobe version 6.0.1 Copyright (c) 2007-2023 the FFmpeg developers\n  built with gcc 13 (GCC)\n  configuration: --prefix=/usr --bindir=/usr/bin --datadir=/usr/share/ffmpeg --docdir=/usr/share/doc/ffmpeg --incdir=/usr/include/ffmpeg --libdir=/usr/lib64 --mandir=/usr/share/man --arch=x86_64 --optflags='-O2 -flto=auto -ffat-lto-objects -fexceptions -g -grecord-gcc-switches -pipe -Wall -Wno-complain-wrong-lang -Werror=format-security -Wp,-U_FORTIFY_SOURCE,-D_FORTIFY_SOURCE=3 -Wp,-D_GLIBCXX_ASSERTIONS -specs=/usr/lib/rpm/redhat/redhat-hardened-cc1 -fstack-protector-strong -specs=/usr/lib/rpm/redhat/redhat-annobin-cc1 -m64 -mtune=generic -fasynchronous-unwind-tables -fstack-clash-protection -fcf-protection -fno-omit-frame-pointer -mno-omit-leaf-frame-pointer' --extra-ldflags='-Wl,-z,relro -Wl,--as-needed -Wl,-z,now -specs=/usr/lib/rpm/redhat/redhat-hardened-ld -specs=/usr/lib/rpm/redhat/redhat-annobin-cc1 -Wl,--build-id=sha1 ' --extra-cflags=' -I/usr/include/rav1e' --enable-libopencore-amrnb --enable-libopencore-amrwb --enable-libvo-amrwbenc --enable-version3 --enable-bzlib --enable-chromaprint --disable-crystalhd --enable-fontconfig --enable-frei0r --enable-gcrypt --enable-gnutls --enable-ladspa --enable-libaom --enable-libdav1d --enable-libass --enable-libbluray --enable-libbs2b --enable-libcdio --enable-libdrm --enable-libjack --enable-libjxl --enable-libfreetype --enable-libfribidi --enable-libgsm --enable-libilbc --enable-libmp3lame --enable-libmysofa --enable-nvenc --enable-openal --enable-opencl --enable-opengl --enable-libopenh264 --enable-libopenjpeg --enable-libopenmpt --enable-libopus --enable-libpulse --enable-libplacebo --enable-librsvg --enable-librav1e --enable-librubberband --enable-libsmbclient --enable-version3 --enable-libsnappy --enable-libsoxr --enable-libspeex --enable-libsrt --enable-libssh --enable-libsvtav1 --enable-libtesseract --enable-libtheora --enable-libtwolame --enable-libvorbis --enable-libv4l2 --enable-libvidstab --enable-libvmaf --enable-version3 --enable-vapoursynth --enable-libvpx --enable-vulkan --enable-libshaderc --enable-libwebp --enable-libx264 --enable-libx265 --enable-libxvid --enable-libxml2 --enable-libzimg --enable-libzmq --enable-libzvbi --enable-lv2 --enable-avfilter --enable-libmodplug --enable-postproc --enable-pthreads --disable-static --enable-shared --enable-gpl --disable-debug --disable-stripping --shlibdir=/usr/lib64 --enable-lto --enable-libvpl --enable-runtime-cpudetect\n  libavutil      58.  2.100 / 58.  2.100\n  libavcodec     60.  3.100 / 60.  3.100\n  libavformat    60.  3.100 / 60.  3.100\n  libavdevice    60.  1.100 / 60.  1.100\n  libavfilter     9.  3.100 /  9.  3.100\n  libswscale      7.  1.100 /  7.  1.100\n  libswresample   4. 10.100 /  4. 10.100\n  libpostproc    57.  1.100 / 57.  1.100\nInput #0, ogg, from '/run/media/corgifist/Stuff/ProgrammingProjects/Electron/example.ogg':\n  Duration: 00:01:15.04, start: 0.000000, bitrate: 110 kb/s\n  Stream #0:0: Audio: vorbis, 44100 Hz, stereo, fltp, 160 kb/s\n    Metadata:\n      Encoded by      : LAME in FL Studio 20\n      BPM (beats per minute): 120\n      DATE            : 2018\n","ID":1768076324,"InternalName":"Example OGG","Path":"cache/32.wav","Type":"Audio"}],"AssetSearch":"","AssetSelected":1,"BackgroundColor":[0.68919837474823,0.7552742958068848,0.17527464032173157],"Framerate":60,"LastAssetPreviewScale":1.0,"LastColorBuffer":3,"LastSelectedLayer":2004878308,"LegendWidth":0.1621621549129486,"LoopPlayback":true,"PreviewResolution":0,"ProjectName":"Development test","ProjectResolution":[1280,720],"RenderPreviewScale":0.7499999403953552,"TimelineValue":0.0}